<svg xmlns="http://www.w3.org/2000/svg" viewBox="0 0 600.28 94.22"><defs><style>.cls-1{fill:#fff;}</style></defs><title>Ресурс 1</title><g id="Слой_2" data-name="Слой 2"><g id="layer"><path class="cls-1" d="M65.66,34.48c-8.1,2.9-18.3,2.3-26.4,4.3-4.1.9-11.5,2-13.3,7.2.5,1.8-.9,6.5.7,8.4,4.3,8.8,12.2.2,18.7,1.8,1.4-1.6,6.3-.5,9-2,1.1-.2,2,1.6,1.8,2.5,0,2-2.3,1.8-2.7,3.6-13.1,5.9-24.8,4.5-37.3-.5-3.2-.2-3.2-5.9-3.4-7,5.6-14.4,17.2-25.7,30.5-35.2,10.6-9,8.4,9.5,17.6,7.7,4.3-2.5,4.1-5,4.7-9.3-1.8-5.2-2.9-13.3-10.2-14.4-2-.9-5.2-2.5-7.9-.9-2.9-1.8-4.3,2.5-7.5,2.7-6.5,2.3-11.1,10.2-18.3,13.1-1.6,3.8-6.1,5.2-7.5,9.3-3.2,2.9-4.3,5.2-6.3,8.4-.5.7-2.3,0-1.4,1.8-1.1.5-1.1,2-2.5,2,.2,2-2.3,5-2.3,7-3.8,7-.2,14.9,2,21.7,4.1,4.3,4.5,6.1,10.4,7.9,9.7,3.6,22.8,5.4,32.7,1.4,2.3,0,4.1-3.2,6.8-1.6.5,5-2.3,12,.5,17.4,4.3,1.6,8.6,3.6,12.9,1.6,2.3-1.6,2.3-5,2.9-7.9-1.1-9.7,1.4-20.5,5.4-30.5,3.8-6.8.2-14.7-4.1-19.9Z"/><path class="cls-1" d="M397.76,60.28c-7.2-1.8-12.2,3.8-19,4.1-3.6.7-5.9-2-8.4-3.8a3.8,3.8,0,0,1,1.4-3.8c2-.2,4.7-2.5,7.2-.9,5-2.5,10.2-.7,16.5-2.7,4.3-1.6,11.7.9,13.5-6.1.2-5.2.5-11.7-4.5-14.4-7.7,4.7-16.3,5.9-25.3,5.2-.5-3.2,2.9-6.1,4.1-8.1l12.9-3.2c7.5-2.3,18.1-2.3,26-6.3,2.3-3.4.5-7.5,0-11.3,0-1.8-2.3-2.3-1.6-4.1-1.6-1.8-3.2-5.4-6.3-4.5-10.8,4.3-24.2,7.2-36.1,9l-3.4,2.3c-2,5.6-5,11.1-6.8,16.5-2.3,5-6.1,9.3-7.5,14-4.7,7.5-5.6,17.8-3.4,26.6,3.2,7.9,11.7,13.3,19.6,13.8,7.2,2.5,15.1-1.4,21.4-6.3.7-2,2.3-5.2,1.6-6.8C401.16,66.08,398.86,62.78,397.76,60.28Z"/><path class="cls-1" d="M168,34.78c-4.1.7-7.7,2.7-12,.7-.9-1.6.7-3.4,1.4-5,10.6-5.4,22.8-4.7,33.4-9,1.8-2.7-.9-5.9-.9-8.6a19,19,0,0,0-4.5-8.8c-13.1,1.1-25.3,5.2-37.9,7.9-5.2-.2-8.6,5.2-10.6,8.6,0,5.4.5,8.6,4.3,11.5.5,3.4-.2,7.5-2.9,10.2-2.3,7.5-4.7,13.5-2.9,21.7,3.2,11.5,15.6,15.6,27.3,17.6,5.2.2,10.2-2.7,12.2-7,.7-6.5-.5-10.2-5.2-15.1-2.5-.9-4.3,1.6-6.3,2.5-5,.5-8.8,0-12.6-2.9,0-1.1,0-3.4,1.1-4.7,9.7-3.4,19.9-1.1,29.8-4.1,3.2-5.6,1.4-11.3-2.5-16.3C175.36,31.38,171.56,33.88,168,34.78Z"/><path class="cls-1" d="M242.46,22.78c2.9.2,4.3-3.2,4.3-4.5.9-4.5-3.4-7.2-4.1-11.5-4.7-5.2-12.4-.5-18.3-.7-8.1,2.9-19.2,3.4-26.9,9.9-1.4,3.4-.9,6.8-1.4,10.4-4.7,9-7.2,20.1-9.5,30.3,0,6.5,3.8,12.2,7,17.8,1.1,4.5,7.5,2.3,9.7,5.2,7.2.5,21,3.6,25.5-5,0-3.2,1.8-9-1.1-12.4a8.7,8.7,0,0,0-5.4-5.2c-2.7,4.1-7.7,4.3-12.2,4.7-3.4-1.4-9,.2-9.5-4.7,1.8-2.9,7.2-2.9,9.5-3.4,1.8-1.4,6.8.5,8.1-1.6,6.5-.2,11.1-1.6,16.9-3.8,3.8-1.6,1.6-5.9,2-8.4-2.7-3.8-2-9.7-8.6-9.5-2.7,2.5-7.9,2.9-11.3,4.3-2.7,0-6.1,1.1-7.9,0C214.16,19.88,231.56,25.68,242.46,22.78Z"/><path class="cls-1" d="M117.56,50.78c-1.8-4.1,5.2-4.7,5.2-9,6.5-9.9,4.3-22.4-2.3-32.5-3.4-5.9-10.4-9-17.4-8.4-2.5-2-5.9,3.4-9.7,1.1-1.4.7-4.3,1.6-4.3,4.1-4.1,2.3-3.6,8.1-3.6,11.5.9,4.3,7,4.3,3.8,9-1.8,2.5-1.1,7.2-4.1,10.2-3.4,0-4.7,2-6.1,5-1.1,4.1,1.1,9.5,3.4,12.2-.9,5.6-.5,8.1-1.4,13.5l.2.2c-.7,2.3.5,6.1.9,8.1,1.8,2.7,4.3,6.5,8.1,6.1,2.5.2,4.1-.5,5-2.5.7-3.4,1.6-6.8-.5-10.2,1.4-2.3-.9-6.3.7-9,.2-2,.5-2,2.5-2.7,3.2,2.9,6.8,5.4,10.4,8.4,7,3.6,9.5,13.3,18.5,12.2,2.7-3.2,7-6.8,7-10.8C133.36,57.08,122.76,57.78,117.56,50.78Zm-13.3-15.6c-.2.9-1.6.2-2,.9l-.7-.7c1.1-5.4,2.3-11.1,2.3-16.7,3.8-.7,5.2.2,7.9,3.2C114,28.18,108.06,31.78,104.26,35.18Z"/><path class="cls-1" d="M365.46,24.38c-.9-8.1-4.5-17.8-13.8-20.5-12-2.9-28-2.3-38.2,2.9-4.7-1.4-8.8,2.5-11.5,1.6-2.5,1.4-1.6,4.3-4.1,5-.2-4.3-3.2-7.9-6.8-10.4-4.3.7-5.4.7-7.5,4.5.9,3.2.2,8.8.5,11.7-.9,6.1-.7,12.9-1.4,18.3-1.4,1.8.9,4.5-2.3,4.5-4.3-5.2-7.7-10.2-11.7-15.6-2-7-.5-13.8-1.8-20.3-1.8-4.1-6.8-3.8-10.4-5.2-2.7,1.1-5.2,2.9-5.4,5.9-2.9,3.4-1.4,7.7-2.3,12,.2,2.5,2,6.5.9,8.1-1.1,1.8-.5,4.7-.5,6.8-.7,8.1-3.2,16.7-4.7,24.6-2.3,3.2-.7,7.2-1.6,10.4.7,3.4.7,5.4,2.9,7.5,2.9,1.8,8.1,4.1,11.5,1.8.7-4.5,3.4-7.9,2-12.6,1.1-5.9,1.8-12.2,4.5-17.8.9-.5,1.4.7,2,1.1,4.7,7.9,11.1,15.4,12.6,23.3-1.4,3.2,3.2,8.4,4.5,10.4,4.3-.7,6.8,1.6,10.6-1.1,3.8-14,.5-28,2.9-43.1.2-4.5,2.3-9.3-.5-12.2-.5-1.6.5-2.5,2.3-3.2,6.3,7.9,12.6-3.4,19.4-1.6,2.9,1.8,1.4,7,1.4,10.8l-5.9,1.6c-4.5,2-3.4,7.5-4.5,11.5.7,4.1,4.5,6.5,7.7,8.8.9,9-4.5,19,2.7,27.3.9,0,2.3,0,2.9,1.1,2.7,1.4,4.5,0,6.5-.9,4.7-6.8,0-10.6,2.9-18.1l-.5-.7c1.6-5-.2-8.8,2.7-13.1,7-2.5,13.5-3.4,18.3-9A25.69,25.69,0,0,0,365.46,24.38Zm-23.2,4.3c-1.8-.2-7.2,4.5-9.5,0,.2-3.2-2-8.1.7-9.7,5.4.2,9.9.5,15.4,2.9C349.46,26,344.06,27.08,342.26,28.68Z"/><path class="cls-1" d="M600.26,21c-2-2.3.7-7-.2-9-2.3-3.6-3.6-9-8.8-9.3-5.9,1.4-11.7,1.8-17.2,3.8-7.9,0-19.4,2.7-28,4.3-3.6-.7-10.2,1.1-13.5,3.4-2.5,1.8-2.9,6.1-3.6,8.6.2,9.3-7.5,14.9-7.5,23-2.3,4.5,0,7.5-2,11.7L519,57c-3.6-8.1-9.5,2.9-14.4,2-8.8,1.1-16.3-2.9-23.7-8.1-4.7-2.3-2-6.1-1.6-9.3,5-9.5,12.9-16.5,22.6-17.6,2.5,1.8-.7,5.4,0,6.5-.2,3.2.5,6.5,2.3,8.4,2.5.9,6.3,2.7,8.6,2.3,2.7-.7,4.7-4.1,6.3-6.1,2-5.4,2.5-8.4,1.4-13.5A16.58,16.58,0,0,0,511.86,9c-1.8.5-5.9-1.1-7.9.2-11.3,1.4-21.7,6.1-31.4,13.5.2,2.5-2.5,2.7-3.8,5a21.34,21.34,0,0,1-5.6,8.6c-1.4-9-2.5-17.8-6.3-26-1.6-4.5-5.9-7.9-10.2-8.1-1.6.5-3.6.9-3.8,2.9l-.9-.2c-5.6,4.7-9,12.4-12.6,18.7-1.6,2.9-4.1,6.5-4.3,8.6-2.5,7.2-8.1,7.9-9.3,14.9,1.1,9.5-12.9,16.3-9,26.2,1.6,4.5,5.2,5,9.3,6.8,4.5-4.1,6.5-10.8,9-15.8.9-5.9,9-3.8,12-5.4,1.8-1.1,4.7-.2,6.3-.9.7,0,3.6,1.1,3.6,2.9-1.4,4.5-.7,9,.2,14.4,2.7,4.5,6.1,5.4,10.8,5.6,2.3-3.2,3.4-4.5,3.6-7.9,1.8-3.4-1.6-7.2-.2-10.8.5-1.4-.5-6.1,1.8-7.5,2.5,3.4,5.6,8.1,9,10.8,2.3.7,2.7,3.8,5.4,4.1,6.8,6.5,18.3,10.2,27.3,11.5,8.8.2,13.3-7.7,16.3-14.7,3.2,4.1,7.2,8.6,12.2,10.4,9.3,3.8,18.1-.5,26.9-.9,2.5-1.6,7.5-4.3,7.2-8.4.7-2.9.5-7-2.9-8.8-4.5-2-8.1-.2-12.4,1.6-2.7-1.8-6.5.9-9.5.7-2.9-.5-7-.5-7.7-4.1,1.4-2.9,4.7-3.2,7.9-2.9,5-2.7,10.2-1.1,16.5-2,4.1-.5,7.9.9,11.7-.7-.2-2,3.6-6.1.7-7.2,1.1-2.9-2.5-6.1-4.3-8.8l-23.3.7-2-1.1c0-3.2,2-5.9,4.1-7.7,9.5-2.3,18.7-2.5,28-3.4V24l2.7-.5c5.4,1.6,11.5-1.6,16.5-.9a5,5,0,0,0,4.7,1.4A2.75,2.75,0,0,0,600.26,21Zm-154.6,17.1c-2-.7-7,2.9-7.9-.9,2.5-4.5,5.6-8.8,7.2-13.5,2-.2,1.8,2.3,2.7,3.4C447,30.68,449,35.18,445.66,38.08Z"/></g></g></svg>